<?xml version="1.0" encoding="UTF-8"?>
<svg xmlns="http://www.w3.org/2000/svg" xmlns:xlink="http://www.w3.org/1999/xlink" viewBox="0 0 64 65.7373">
  <defs>
    
    <radialGradient id="radial-gradient" cx="32" cy="32" fx="32" fy="32" r="32" gradientUnits="userSpaceOnUse">
      <stop offset="0" stop-color="#db457b"/>
      <stop offset=".2516" stop-color="#d84377"/>
      <stop offset=".4976" stop-color="#cf3d6b"/>
      <stop offset=".7413" stop-color="#c23457"/>
      <stop offset=".9823" stop-color="#ae273c"/>
      <stop offset="1" stop-color="#ad263a"/>
    </radialGradient>
  </defs>
  <g id="Layer_34" data-name="Layer 34">
    <rect fill="url(#radial-gradient)" x="0" y="0" width="64" height="64"/>
  </g>
  <g id="Layer_27" data-name="Layer 27">
    <path fill="#db457b" d="M36.583,25.6031c.3783-1.4991-.0211-3.0865-1.0667-4.2257-.3058-.3332-.696-.6088-1.1398-.7192-.6697-.1665-1.2436.0834-1.8439.3476-.6172.2716-1.2335.5504-1.8136.8961-.6994.4168-1.278.9213-1.7548,1.5805-.1724.2384-.3328.4941-.4681.7556-.1756.3393-.2633.6892-.2122,1.0688.0734.5461.3715.8859.7959,1.2008,1.0793.801,2.6089,1.1381,3.9365.9843.8578-.0994,1.6088-.3466,2.2829-.9044.5636-.4664.8978-1.163,1.117-1.8457.0783-.2438.1389-.4928.205-.7401.0295-.1105.0595-.2209.0926-.3304.0206-.068.0421-.1357.0652-.203.0178-.052.1235-.3519.031-.097-.0906.2497.0797-.1259.1169-.1936.1886-.3435.2858-.6908.2327-1.0861-.1019-.7584-.6692-1.2907-1.4182-1.4087-.8678-.1367-1.7204-.023-2.5571.2335-.6337.1943-1.2952.4191-1.8358.8109-.7213.5227-1.2451,1.2471-1.3765,2.1441-.1219.8318-.1107,1.7604.3578,2.4934.631.9872,1.8678,1.2334,2.9469.9979.8852-.1933,1.6425-.7995,2.1443-1.5347.4762-.6977.6765-1.6373.6022-2.4717-.046-.5166-.1363-1.0406-.3739-1.5074-.3809-.7485-1.1792-1.1306-2.0001-.9219-.7607.1933-1.2937,1.0849-1.0477,1.8452.2544.786,1.0301,1.2548,1.8452,1.0477l.0641-.0163h-.7975c-.397-.1241-.6553-.3601-.7748-.7078.0197.0611.0375.1227.0536.1849.0229.0894.0302.1964.0595.2832-.0291-.2397-.0359-.2768-.0202-.1114.0044.064.0068.1282.0072.1923.0003.0582-.0396.2546-.0128.2874.0364-.2403.0402-.2788.0114-.1156l-.0208.0929c-.015.0617-.0324.1226-.0521.183-.0551.1515-.0396.1206.0464-.0929-.0485.059-.0941.1748-.1325.243-.0884.1289-.0607.0972.0831-.0954-.0366.0442-.075.0869-.115.128l-.0614.0604c-.1177.1032-.0824.0803.1057-.0687-.0852.0311-.1714.1165-.2535.1609-.3126.169.2779-.0614.0058-.0012-.0706.0156-.1813.0269-.2467.0594.2598-.0299.3088-.0398.1469-.0297-.0564.0012-.1128-.0005-.169-.0051l.23.0306c-.0556-.0105-.1104-.0244-.1643-.0417.2239.1056.267.1206.1293.0451.0992.05.1786.1204.2383.211.0745.0783.1219.1721.1421.2814-.0199-.0561-.036-.1133-.0482-.1716-.0899-.2868.0104.3289.0071.0376-.0014-.1269-.0014-.2561-.0053-.3828-.0094-.3108-.0878.319-.0086.0206.0123-.0618.0274-.1228.0454-.1832.0421-.1203.0386-.1193-.0105.003-.143.2452.1043-.1203.1022-.1464-.1474.1845-.1686.2186-.0635.1023l.0633-.0608c.1192-.102.0867-.0789-.0974.0692.0485-.0342.0982-.0666.1491-.0973.077-.0466.1565-.0891.2371-.1291.0544-.0267.1093-.0521.1649-.0763-.2187.091-.2536.1073-.1046.0488.086-.0288.1707-.0619.2567-.0911.2351-.0797.4728-.1545.7133-.216.1058-.0271.2123-.0519.3195-.0731.0711-.0141.1425-.0265.2142-.0371-.2201.0285-.2457.0351-.0768.0196.1057.0023.2163.0011.3217-.0028.169.0138.1428.0073-.0786-.0193.0589.0076.1163.0212.1722.0409l-.6619-.3858.051.0418-.3858-.6619.0142.063v-.7975c.1122-.3834.0899-.2275.0121-.0836-.0333.0616-.0628.1251-.092.1888-.106.2314-.2066.4713-.2877.7136-.0953.2845-.1643.577-.2426.8664-.0405.1499-.0829.2995-.1327.4467-.0199.0588-.1242.2871-.0122.0543.1133-.2352.0008-.0068-.0261.0454-.0377.0731-.0803.1412-.1226.2115-.1295.2149.1875-.1974.06-.0762-.0251.0238-.1461.1159-.1509.1506.1799-.1316.2234-.1652.1304-.1008-.0356.0252-.0723.0486-.1102.0704-.0548.0324-.29.1216-.0554.0407.2425-.0836-.014-.0002-.0681.0164-.0851.026-.1716.0475-.2587.0656-.0583.0121-.3249.0721-.0665.0155.2528-.0553-.0047-.0055-.0696-.002-.0896.0049-.1793.0069-.269.0066-.1602-.0004-.3188-.0146-.4786-.0229-.3406-.0178.3455.0696.0108.0038-.0799-.0157-.1602-.029-.2398-.0464-.1744-.0382-.3466-.086-.5152-.1449l-.0912-.0331c-.1204-.0476-.1204-.047.0001.0018.1194.051.1205.0494.0033-.0048l-.086-.0442c-.0853-.0454-.1689-.0942-.2502-.1464l-.0807-.0536c-.2212-.1628-.1207-.0566.3016.3187l.2048.7571.0076-.058-.2048.7571c.0667-.1361.1465-.2671.2245-.397.0339-.0564.2158-.4131.2702-.413-.1264.159-.1539.1956-.0825.11.0314-.038.064-.075.0978-.1109.0441-.0472.09-.093.1371-.1373.0858-.0806.3095-.2035-.0061-.0144.0548-.0329.1051-.0772.1578-.1136.6012-.4153,1.2722-.727,1.9376-1.0236.0833-.0371.1668-.074.2503-.1107.0551-.0242.3406-.1022.1166-.0502-.2789.0647-.4617.1107-.7729-.0824-.1106-.0686-.2165-.192-.0564-.0293.0469.0477.0963.1268.1487.1642-.088-.0627-.1859-.2598-.0498-.055.0825.1241.1455.2556.2165.3858.0813.1491-.1149-.3577-.034-.0711.0201.0711.0459.1405.0652.2119s.0323.1443.0504.2159c.0657.26-.0176-.2775-.0103-.0916.0059.1488.0159.2932.0071.4424-.0161.2734-.03-.0171.0191-.091-.0383.0577-.04.1935-.0567.2597-.1917.7597.2462,1.6626,1.0477,1.8452.7785.1773,1.6398-.2337,1.8452-1.0477h0Z"/>
  </g>
  <g id="Layer_29" data-name="Layer 29">
    <path fill="#b73450" d="M42.6684,31.1984c.8066-2.4224.8276-5.0569.0779-7.4961l-2.8928.7975c.2135.6521.2789,1.2873.3232,1.9682l2.9464-.3988c-.2717-1.8143-.5202-3.634-.8272-5.4427-.3116-1.8356-1.0663-3.2694-2.5868-4.3753-1.3422-.9762-2.9058-1.8052-4.5959-1.817-1.8367-.0128-3.6675.5533-5.2092,1.5399-1.1393.7291-.8499,2.2989.3583,2.7416,2.4068.882,4.9888,1.0311,7.4464,1.7213v-2.8928c-.5775.1777-1.2068.061-1.7997.0073-.8076-.073-1.614-.1599-2.4187-.2602-1.5236-.19-3.0387-.446-4.5457-.7386v2.8928c1.4113-.2879,3.0233.1288,4.4128.408.6966.14,1.3894.3071,2.064.5319.3169.1056.6347.2157.9316.3701.0981.051.203.1385.3007.1801.0659.0281-.0607-.1308-.0643-.0566l2.5607-1.0607c-.9581-.819-1.9609-1.4117-3.1269-1.8851l-.7975,2.8928c.8318.2133,1.5955.5527,2.2893,1.0667.4832.358,1.2752.9904,1.3982,1.6049.1591.7947,1.104,1.2513,1.8452,1.0477.828-.2276,1.2072-1.0481,1.0477-1.8452-.2437-1.2174-1.352-2.287-2.292-3.029-1.037-.8185-2.2087-1.4091-3.4909-1.7379-.7842-.2011-1.6279.257-1.8452,1.0477-.2358.858.294,1.5392,1.0477,1.8452.6504.264,1.271.6587,1.8031,1.1136.9949.8504,2.4955.2866,2.5607-1.0607.1183-2.4473-2.7545-3.2928-4.6517-3.7476-2.163-.5186-4.583-1.0291-6.7906-.5788-1.4231.2903-1.4395,2.6134,0,2.8928,1.7712.3439,3.5528.6225,5.3432.8457,1.5835.1974,3.4545.6261,5.0159.1457,1.3996-.4306,1.4526-2.4849,0-2.8928-2.4577-.6902-5.0395-.8392-7.4464-1.7213l.3583,2.7416c1.116-.7142,2.3614-1.1397,3.6951-1.1303,1.0912.0076,2.3066.7704,3.1307,1.452,1.0067.8327,1.097,2.1228,1.2872,3.3391.2417,1.5458.4676,3.0942.6993,4.6415.2493,1.665,3.0557,1.2809,2.9464-.3988-.0607-.9326-.1382-1.8732-.4303-2.7657-.5969-1.8235-3.4638-1.0599-2.8928.7975.6038,1.9644.5711,3.9524-.0779,5.9011-.6114,1.8359,2.2849,2.6232,2.8928.7975h0Z"/>
  </g>
  <g id="Layer_28" data-name="Layer 28">
    <path fill="#c43d61" d="M25.4666,32.6432c-.0664-.0742-.1308-.1501-.1932-.2277.0833.1068.0726.0886-.0322-.0544-.081-.1252-.1638-.2474-.2399-.3758-.1016-.1714-.187-.3496-.2801-.5253-.1411-.2663.0301.1181-.0857-.1903-.2467-.657-.4246-1.3375-.5257-2.0323.0376.2581-.0188-.1937-.0226-.2434-.0168-.2203-.0215-.44-.0122-.6608.0164-.3911-.062.1213.0403-.2494.0572-.2074.1187-.4129.203-.6112-.0785.1846.1196-.2422.1147-.232.0969-.2035.196-.4061.2941-.609.1742-.3604.3483-.7208.5225-1.0813l-2.7952-.7571c-.1422,1.5195-.5143,3.125-.4482,4.7938.0642,1.621.5209,3.1928,1.3371,4.5947l2.5904-1.5142c-.1985-.2992-.393-.6012-.5704-.9135-.076-.1337-.1494-.269-.2186-.4064-.0461-.0912-.0903-.1832-.1327-.2762.0495.125.0415.1036-.0239-.0642-.1003-.2868-.1914-.5759-.2423-.8762.0437.2581-.0118-.3372-.0111-.4037.0017-.1663.0091-.3348.031-.4996-.0272.2042.0589-.2726.0567-.2625.0417-.1921.0922-.3822.1474-.5708.1022-.3497.2244-.6929.3518-1.034.2742-.734.5705-1.4577.7799-2.214.2092-.7556-.2586-1.6655-1.0477-1.8452-.7937-.1808-1.6211.2384-1.8452,1.0477-.4724,1.7059-1.319,3.2511-1.4587,5.0452-.1364,1.7526.651,3.3668,1.5933,4.7877.433.653,1.3447.9943,2.0523.5381.6838-.4409.9607-1.3265.5381-2.0523-.623-1.0702-.9316-2.197-.9345-3.4234-.0037-1.606.3056-2.8535.4552-4.451.1373-1.4667-2.1627-2.0661-2.7952-.7571-.4332.8966-.9024,1.7851-1.263,2.7141-.3957,1.0193-.3532,2.0753-.2006,3.1364.2593,1.8027.947,3.4973,2.1497,4.8777.5172.5936,1.599.569,2.1213,0,.5808-.6327.5516-1.4881,0-2.1213h0Z"/>
  </g>
  <g id="Layer_5" data-name="Layer 5">
    <path fill="#ad233a" stroke="#8c0f00" stroke-miterlimit="10" stroke-width="0.3" d="M12.8283,24.4755s-2.4542-.2815-4.9403,4.6078c0,0-3.6327,2.1068-2.6104,5.428,0,0,.8388,6.3958,4.6348,10.4567.6389.6835,1.4436,1.1911,2.3267,1.5,2.352.8229,7.2851,2.1205,8.038-1.1421l.4144-.6215s-4.9086-2.2661-5.0329-8.3157c0,0-2.2776-3.0841-2.982-5.4874,0,0-.3456-4.0226.1516-6.4259Z"/>
    <path fill="#8c0f00" d="M7.3655,36.5347s2.9746-1.9578,8.3034.1554l.086.9367s-3.1893-2.2937-8.3894-1.0921Z"/>
  </g>
  <g id="Layer_2" data-name="Layer 2">
    <path fill="#b73450" stroke="#8c0f00" stroke-miterlimit="10" stroke-width="0.3" d="M15.7757,36.4677s-1.909,7.1754,11.8689,10.9807c.5843.1614,1.1885.2561,1.7937.2898,2.9338.1632,5.757.6529,9.3317-1.6229,0,0-1.2408-6.0013-12.3455-4.924,0,0-5.1794-.1657-10.6489-4.7236h0Z"/>
  </g>
  <g id="Layer_32" data-name="Layer 32">
    <path d="M21.9497,45.6401s-1.4584,1.3381-2.0661.3437,2.9619-3.2453,2.9619-3.2453l-.3754-.4718-2.4329,1.794c-.0085.0225-1.4017,1.1813-.7526,2.2402.6628,1.0812,1.7584.5371,1.7584.5371l1.329-.754"/>
  </g>
  <g id="Layer_3" data-name="Layer 3">
    <path fill="#ad233a" stroke="#8c0f00" stroke-miterlimit="10" stroke-width="0.3" d="M20.6325,44.6208s-4.1435,5.8009,4.2678,13.7151c0,0-3.3377-5.793,5.1222-1.247.9545.5129,1.9861.8865,3.0544,1.0682,3.7584.6392,11.7205.642,14.2833-9.9216,0,0-5.8443,1.3991-10.9408-.9627,0,0-6.7948,2.7911-15.5594-2.58l-.2274-.0718Z"/>
    <path fill="#8c0f00" d="M24.0232,53.7366s2.5408-4.3145,6.9057-5.759l2.8085-.1252s-7.2832,2.0416-9.5415,5.8842c0,0-.4587.1836-.1727,0Z"/>
  </g>
  <g id="Layer_4" data-name="Layer 4">
    <path fill="#ad233a" stroke="#8c0f00" stroke-miterlimit="10" stroke-width="0.3" d="M52.5108,25.3571s3.1076.29,4.3507,6.2567c0,0,4.3921,3.4806-.2486,6.7125,0,0-1.6721,6.1049-7.2386,9.1612-.4003.2198-.83.3766-1.2729.4881-1.8611.4685-7.0053,1.434-11.682-.703,0,0,8.0688-2.6067,11.2307-13.297,0,0,4.6535-3.6049,4.8607-8.6185Z"/>
    <path fill="#8c0f00" d="M46.6668,37.4241s4.213-1.7472,8.4118.693c0,0-5.0851-.8535-9.3323.7003,0,0,.2175-.953.9204-1.3934Z"/>
  </g>
  <g id="Layer_6" data-name="Layer 6">
    <path fill="#b73450" stroke="#8c0f00" stroke-miterlimit="10" stroke-width="0.3" d="M42.5096,21.1922s10.086,2.3315,3.5094,16.9121c0,0-3.3264,5.702-7.249,8.011,0,0-.5136-7.9191,1.351-10.7781,0,0,2.5184-4.2029,2.8418-8.7457.0758-1.065-.06-2.133-.3546-3.1593-.2846-.9912-.5801-2.3166-.0985-2.2399Z"/>
  </g>
  <g id="Layer_7" data-name="Layer 7">
    <path fill="#ad233a" stroke="#8c0f00" stroke-miterlimit="10" stroke-width="0.3" d="M32.9754,13.2141s.6256-2.2847,5.8923-1.6238c.6976.0875,1.8371.0475,2.5247-.0997l.344-.0736c.1432-.0306.2693-.1001.3711-.2053.5413-.56,2.522-2.2288,3.7466,1.8238.3351,1.1087,1.4656,3.1373,2.2447,3.9943.4854.5339,1.8223,1.8685,2.5146,2.5559.3492.3468.635.7422.8445,1.1876.7402,1.5735,1.9495,5.3938-.9553,9.7194,0,0-1.8525,3.4616-2.764,3.1302,0,0,2.5983-10.1742-5.4402-12.4945,0,0-1.3259-5.9252-8.0384-6.4639,0,0-.4144-.6215-1.2845-1.4502Z"/>
  </g>
  <g id="Layer_8" data-name="Layer 8">
    <path fill="#b73450" stroke="#8c0f00" stroke-miterlimit="10" stroke-width="0.3" d="M34.2599,14.6644s-2.8537.4403-5.9258,3.7706c-.6475-.8074-1.7031-1.2001-2.7794-1.2001-1.144,0-2.9511.4873-4.8969,1.8618-.1834.1296-.3881.2232-.6116.2014-.9062-.0884-3.2494.0084-1.6566,3.7363,0,0-2.6519,6.2153,3.812,11.3947,0,0,.1668,4.2531,4.0618,6.6425-.291.2341-9.933-.9516-13.065-8.6732-.7373-1.8178-.8164-3.5142-.5657-5.47.2629-2.0504.4643-5.598-.2098-7.7889,0,0-1.4917-3.7292,5.5523-3.9778,0,0,9.655-8.95,16.2846-.4972Z"/>
  </g>
  <g id="Layer_9" data-name="Layer 9">
    <path fill="#991a36" stroke="#8c0f00" stroke-miterlimit="10" stroke-width="0.3" d="M20.9587,13.007s.3315-4.8885,5.428-2.0294c0,0-3.7706.7449-5.428,2.0294Z"/>
  </g>
  <g id="Layer_30" data-name="Layer 30">
    <path d="M38.9528,11.1159l1.345-.8987s1.0956-.544,1.7584.5371c.6492,1.0589-.7441,2.2177-.7526,2.2402l-2.4329,1.794-.3754-.4718s3.5697-2.2508,2.9619-3.2453-2.4643.6176-2.4643.6176"/>
  </g>
  <g id="Layer_10" data-name="Layer 10">
    <path fill="#991a36" stroke="#8c0f00" stroke-miterlimit="10" stroke-width="0.3" d="M26.4027,10.8601c.094-.435.7397-1.9336,5.1743-1.9995.498-.0074.9901-.1351,1.4317-.3654.7117-.3712,1.9371-.9327,3.3443-1.2457.1299-.0289.2628-.0041.3716.0726.7224.5086,3.5937,2.5784,4.5691,4.0147.0431.0635.0029.1492-.0699.1734-.5828.194-.5967.1929-3.3758-.016,0,0-3.5086-.4642-4.7923,1.5007-.0288.044-.0849.0576-.1264.0252-.5035-.3926-3.1396-2.3045-6.4258-2.0525-.0625.0048-.1141-.0463-.1008-.1075Z"/>
  </g>
  <g id="Layer_11" data-name="Layer 11">
    <path fill="#991a36" stroke="#8c0f00" stroke-miterlimit="10" stroke-width="0.3" d="M45.6533,12.3666s.8064,3.3676,3.1913,5.2811c0,0-.0423-5.9026-3.1913-5.2811Z"/>
  </g>
  <g id="Layer_12" data-name="Layer 12">
    <path fill="#b73450" stroke="#8c0f00" stroke-miterlimit="10" stroke-width="0.3" d="M22.1188,34.3461s1.1188,6.4639,5.0965,6.7954c0,0,5.0551-.663,8.9086,1.5745l1.4088.7458s-.0641-.2728-.2625-.7022c-.5144-1.1137-1.9317-3.281-5.4758-4.4772,0,0-7.4382-2.6104-9.6757-3.9364Z"/>
  </g>
  <g id="Layer_13" data-name="Layer 13">
    <path fill="#c43d61" stroke="#8c0f00" stroke-miterlimit="10" stroke-width="0.3" d="M28.3341,18.435s-2.1585-3.1179-7.6534.6971c-.1816.1261-.4027.1865-.6221.1588-.8984-.1136-3.2772-.0911-1.669,3.7434,0,0-1.3767,3.0829.4032,7.2534,0,0,1.7929,4.1413,7.5938,6.0888,0,0,10.6611,4.6665,12.3185,9.5144,0,0,1.682-3.7805-6.8584-9.2612-.2625-.1685-.944-.3971-1.3326-.5364-2.6772-.9593-15.3037-4.4733-5.8006-13.0074,0,0,.3656-2.2475,3.6207-4.6509Z"/>
  </g>
  <g id="Layer_14" data-name="Layer 14">
    <path fill="#db457b" stroke="#8c0f00" stroke-miterlimit="10" stroke-width="0.3" d="M24.6632,26.4645s-1.4885-4.5481,3.6022-7.8207c.0106-.0068.0147-.0098.0261-.015.1961-.0896,3.3429-1.4684,6.1942.9327.096.0808.1053.2355.0126.3201-.3008.2743-.6994.984-1.0271,1.2606-.4808.406-2.6828,1.161-3.1509,1.3188-.0573.0193-.109.0134-.1619-.0157-.3036-.1672-1.4781-.6474-2.4019,1.2845,0,0-1.1072,1.1051-2.1365,3.197,0,0-.5099.862-.9568-.4622Z"/>
  </g>
  <g id="Layer_15" data-name="Layer 15">
    <path fill="#db457b" stroke="#8c0f00" stroke-miterlimit="10" stroke-width="0.3" d="M24.6602,29.4361s-1.8462-1.1252-.6584-2.4787c0,0,.5123-.7792,1.5943,1.0368.1928.3236.4715.5823.8042.7588,1.1024.5848,3.68,1.444,6.8948-.8507.7209-.5146,1.6898-1.5854,1.9265-2.4389.5883-2.1215,1.2452-4.3275,1.7195-.2227,0,0,.564,3.3391-3.1652,6.0462,0,0-1.4917-1.1049-3.9502,0,0,0-2.1823.3867-5.1656-1.8508Z"/>
  </g>
  <g id="Layer_16" data-name="Layer 16">
    <path fill="#db457b" stroke="#8c0f00" stroke-miterlimit="10" stroke-width="0.3" d="M24.4605,29.2946s-.0988,3.866.9849,4.7962l4.996,2.0025,3.3346-4.8065s-1.3591-1.074-3.8295-.0528c0,0-2.475.6558-5.486-1.9394Z"/>
  </g>
  <g id="Layer_17" data-name="Layer 17">
    <path fill="#db457b" stroke="#8c0f00" stroke-miterlimit="10" stroke-width="0.3" d="M36.4667,28.0537s2.2539-1.9877,2.1434-6.1864c0,0,2.8452-.4984,1.4917,3.0932,0,0-.3591,3.785-4.7789,7.3485,0,0-2.8026,2.3846-3.5283,4.2862l-1.3532-.5017,3.3346-4.8065s1.7195-1.2495,2.6907-3.2332Z"/>
  </g>
  <g id="Layer_18" data-name="Layer 18">
    <path fill="#db457b" stroke="#8c0f00" stroke-miterlimit="10" stroke-width="0.3" d="M41.2645,32.9684s-2.3757,13.2603-2.4405,13.1142c-.7228-1.6294-2.8032-6.5219-6.4018-9.0648-.0564-.0375-.3271-.1717-.5582-.5914-.1883-.3419,1.7288-2.4624,3.8124-4.4102,0,0,3.5662-3.1145,4.3326-6.4874.0315-.1387.2277-.1441.2718-.0088.2561.7867.759,2.2822,1.3229,3.6954.4922,1.2337-.3391,3.7531-.3391,3.7531Z"/>
  </g>
  <g id="Layer_19" data-name="Layer 19">
    <path fill="#db457b" stroke="#8c0f00" stroke-miterlimit="10" stroke-width="0.3" d="M34.725,19.7727s3.0978.0227,3.8851,2.0945c0,0,.3062,3.4458-1.8884,5.9216,0,0,1.233-6.0991-2.1362-7.0589,0,0-.947-.2718.1395-.9571Z"/>
  </g>
  <g id="Layer_20" data-name="Layer 20">
    <path fill="#db457b" stroke="#8c0f00" stroke-miterlimit="10" stroke-width="0.3" d="M28.3847,29.1902c-.1935-.1732-1.1843-1.4014-.6052-3.1548,0,0-.0262-1.6579.0352-2.3067.0463-.4897-2.0711,2.1358-2.4143,3.9498,1.0106,1.7773,3.2423,1.7426,2.9843,1.5118Z"/>
  </g>
  <g id="Layer_21" data-name="Layer 21">
    <path fill="#db457b" stroke="#8c0f00" stroke-miterlimit="10" stroke-width="0.3" d="M27.7795,26.0353s4.9866,4.8664,6.6992-1.487c0,0,.7693,0,.5366,1.3802,0,0-.8123,2.8886-6.4459,3.4379,0,0-1.5778-1.2639-.79-3.331Z"/>
  </g>
  <g id="Layer_23" data-name="Layer 23">
    <path fill="#db457b" stroke="#8c0f00" stroke-miterlimit="10" stroke-width="0.3" d="M31.5299,23.7305s1.4822-.2091,1.4455,1.5726c0,0,.1178,1.2352-1.6663,1.0487-.2522-.0554-2.0133-.1795-.9601-2.0526,0,0,.196-.4401,1.1809-.5687Z"/>
  </g>
  <g id="Layer_22" data-name="Layer 22">
    <path fill="#db457b" stroke="#8c0f00" stroke-miterlimit="10" stroke-width="0.3" d="M30.9723,25.4429s.5074-1.0856,1.0927,0c0,0,.0722.5463-.5936.6931,0,0-.8928.0444-.4992-.6931Z"/>
  </g>
  <g id="Layer_25" data-name="Layer 25">
    <path fill="#db457b" stroke="#8c0f00" stroke-miterlimit="10" stroke-width="0.3" d="M30.2327,22.4904c-.1605.0053-1.8297-.9511-2.4239,1.5124.1752.1934-1.2146,3.4838,4.3841,3.8742,0,0,2.2375-.8287,2.1546-4.0399,0,0-.3155-2.7272-3.7546-1.0076,0,0-1.3605,1.059-.5939,2.5921,0,0,.0585-2.1512,2.2475-1.5819,0,0,1.0481.0913.533,2.1017,0,0-1.9811,2.0481-3.307-.4872,0,0-.7857-1.7621.7601-2.9638Z"/>
  </g>
  <g id="Layer_31" data-name="Layer 31">
    <rect x="37.1231" y="14.6036" width=".6466" height="1.9747" transform="translate(27.3203 -23.6873) rotate(52.9391)"/>
    <rect x="35.187" y="16.4683" width=".6466" height="1.2584" transform="translate(43.2675 55.7385) rotate(-127.0609)"/>
    <polygon points="34.93 16.5965 35.8546 17.8208 34.3321 18.0094 34.93 16.5965"/>
  </g>
  <g id="Layer_33" data-name="Layer 33">
    <rect x="23.7129" y="40.4598" width=".6466" height="1.9747" transform="translate(42.6251 -2.7123) rotate(52.9391)"/>
    <polygon points="27.209 39.1812 25.6864 39.3698 25.9645 39.738 25.3337 40.2144 25.7234 40.7303 26.3542 40.254 26.611 40.5941 27.209 39.1812"/>
  </g>
</svg>